<?xml version="1.0" encoding="UTF-8"?>
<svg width="17px" height="18px" viewBox="0 0 17 18" version="1.1" xmlns="http://www.w3.org/2000/svg" xmlns:xlink="http://www.w3.org/1999/xlink">
    <title>Fill 929</title>
    <g id="Page-1" stroke="none" stroke-width="1" fill="none" fill-rule="evenodd">
        <g id="Menu-items" transform="translate(-1261.000000, -40.000000)" fill="#000000">
            <path d="M1269.06324,41.5 C1267.82049,41.5 1266.81324,42.505 1266.81324,43.75 L1271.31324,43.75 C1271.31324,42.505 1270.30599,41.5 1269.06324,41.5 Z M1271.31324,45.25 L1271.31324,46 C1271.31324,46.4125 1271.64924,46.75 1272.06324,46.75 C1272.47724,46.75 1272.81324,46.4125 1272.81324,46 L1272.81324,45.25 L1273.72974,45.25 C1274.10999,45.25 1274.42949,45.535 1274.47449,45.91 L1275.62124,55.66 C1275.67374,56.11 1275.32574,56.5 1274.87649,56.5 L1263.24999,56.5 C1262.80074,56.5 1262.45274,56.11 1262.50524,55.66 L1263.65199,45.91 C1263.69699,45.535 1264.01649,45.25 1264.39674,45.25 L1265.31324,45.25 L1265.31324,46 C1265.31324,46.4125 1265.64924,46.75 1266.06324,46.75 C1266.47724,46.75 1266.81324,46.4125 1266.81324,46 L1266.81324,45.25 L1271.31324,45.25 Z M1265.31324,43.75 L1264.39674,43.75 C1263.25599,43.75 1262.29599,44.605 1262.16249,45.7375 L1261.01574,55.4875 C1260.85824,56.8225 1261.90299,58 1263.24999,58 L1274.87649,58 C1276.22349,58 1277.26824,56.8225 1277.11074,55.4875 L1275.96399,45.7375 C1275.83049,44.605 1274.87049,43.75 1273.72974,43.75 L1272.81324,43.75 C1272.81324,41.68 1271.13399,40 1269.06324,40 C1266.99174,40 1265.31324,41.68 1265.31324,43.75 L1265.31324,43.75 Z" id="Fill-929"></path>
        </g>
    </g>
</svg>