<?xml version="1.0" encoding="UTF-8"?>
<svg width="18px" height="18px" viewBox="0 0 18 18" version="1.1" xmlns="http://www.w3.org/2000/svg" xmlns:xlink="http://www.w3.org/1999/xlink">
    <title>Shape</title>
    <g id="Page-1" stroke="none" stroke-width="1" fill="none" fill-rule="evenodd">
        <g id="Desktop-HD-Copy" transform="translate(-135.000000, -37.000000)" fill="#141124" fill-rule="nonzero">
            <g id="Search" transform="translate(135.000000, 26.000000)">
                <path d="M10.9459459,11 C14.8417924,11 18,14.1582076 18,18.0540541 C18,21.9499005 14.8417924,25.1081081 10.9459459,25.1081081 C9.26086373,25.1081081 7.71378255,24.5172555 6.50057567,23.5314234 L1.24572657,28.7862671 C0.960749384,29.0712443 0.498710075,29.0712443 0.213732889,28.7862671 C-0.0712442965,28.5012899 -0.0712442965,28.0392506 0.213732889,27.7542734 L0.213732889,27.7542734 L5.46857658,22.4994243 C4.48274455,21.2862175 3.89189189,19.7391363 3.89189189,18.0540541 C3.89189189,14.1582076 7.05009947,11 10.9459459,11 Z M10.9459459,12.4594595 C7.85613667,12.4594595 5.35135135,14.9642448 5.35135135,18.0540541 C5.35135135,21.1438633 7.85613667,23.6486486 10.9459459,23.6486486 C14.0357552,23.6486486 16.5405405,21.1438633 16.5405405,18.0540541 C16.5405405,14.9642448 14.0357552,12.4594595 10.9459459,12.4594595 Z" id="Shape" transform="translate(9.000000, 20.000000) scale(-1, 1) translate(-9.000000, -20.000000) "></path>
            </g>
        </g>
    </g>
</svg>