<?xml version="1.0" encoding="UTF-8"?>
<svg width="18px" height="18px" viewBox="0 0 18 18" version="1.1" xmlns="http://www.w3.org/2000/svg" xmlns:xlink="http://www.w3.org/1999/xlink">
    <title>Shape</title>
    <g id="Page-1" stroke="none" stroke-width="1" fill="none" fill-rule="evenodd">
        <g id="Desktop-HD-Copy-2" transform="translate(-1144.000000, -40.000000)" fill="#141124" fill-rule="nonzero">
            <g id="Menu-items">
                <path d="M1153,40 C1157.97056,40 1162,44.0294373 1162,49 C1162,53.9705627 1157.97056,58 1153,58 C1148.02944,58 1144,53.9705627 1144,49 C1144,44.0294373 1148.02944,40 1153,40 Z M1153,45.0769231 C1151.62603,45.0769231 1150.46154,46.2023621 1150.46154,47.7694175 C1150.46154,48.6812619 1150.75685,49.2753026 1151.38507,49.8688456 C1151.6109,50.0558734 1151.78663,50.2719416 1151.91234,50.510266 C1152.16378,50.9869489 1152.19244,51.4791942 1152.09505,51.9291059 C1152.07511,52.0211939 1152.05319,52.0944755 1152.05311,52.0863986 C1151.83511,52.896024 1151.27135,53.2433995 1150.03409,53.6660133 L1150.03409,53.6660133 L1149.62289,53.8048634 C1149.46309,53.8590851 1149.33831,53.9027854 1149.219,53.9468222 C1148.63244,54.1633171 1148.21149,54.3844601 1147.9068,54.6601909 C1149.25635,55.8763446 1151.04187,56.6153846 1153,56.6153846 C1154.95765,56.6153846 1156.74278,55.8767065 1158.09186,54.6628697 C1157.79034,54.3936956 1157.37179,54.1804549 1156.77828,53.9668294 C1156.67496,53.9296402 1156.56681,53.8923149 1156.42964,53.8461681 L1156.42964,53.8461681 L1156.07381,53.7270381 C1154.78576,53.2924799 1154.20594,52.9411974 1153.95643,52.118691 C1153.94067,52.0697736 1153.92247,52.0000969 1153.90583,51.9123227 C1153.82823,51.5028903 1153.84577,51.0591879 1154.03306,50.6224733 C1154.15488,50.3383981 1154.34212,50.0834856 1154.57637,49.8883423 C1155.23616,49.2922329 1155.53846,48.6821383 1155.53846,47.7694175 C1155.53846,46.229519 1154.3567,45.0769231 1153,45.0769231 Z M1153,41.3846154 C1148.79414,41.3846154 1145.38462,44.7941392 1145.38462,49 C1145.38462,50.7477719 1145.9734,52.3580267 1146.96343,53.643239 C1147.41582,53.2277735 1147.99291,52.9234461 1148.73956,52.6478612 C1148.87214,52.5989271 1149.0076,52.551484 1149.178,52.4936684 L1149.178,52.4936684 L1149.58653,52.3557262 C1150.38398,52.0833404 1150.66696,51.9089775 1150.73528,51.6662908 C1150.73294,51.6726187 1150.73636,51.6611665 1150.74178,51.636157 C1150.77614,51.4774068 1150.7661,51.3049797 1150.68765,51.1562551 C1150.64712,51.0794164 1150.58754,51.0061492 1150.46886,50.9060413 C1149.54654,50.0374677 1149.07692,49.0927906 1149.07692,47.7694175 C1149.07692,45.4268912 1150.8717,43.6923077 1153,43.6923077 C1155.11376,43.6923077 1156.92308,45.4569654 1156.92308,47.7694175 C1156.92308,49.0967159 1156.44093,50.0697927 1155.48449,50.9332157 C1155.39949,51.0042691 1155.34278,51.0814813 1155.30559,51.168209 C1155.24253,51.3152517 1155.23552,51.4924663 1155.26623,51.6544848 C1155.27161,51.6828667 1155.27542,51.6974654 1155.27786,51.7053523 C1155.34883,51.9392303 1155.65399,52.1241091 1156.51643,52.4150774 L1156.51643,52.4150774 L1156.87111,52.5338185 C1157.0167,52.5827957 1157.13337,52.6230628 1157.24721,52.6640366 C1158.00681,52.9374473 1158.58407,53.2336595 1159.0358,53.6431504 C1160.0263,52.3588662 1160.61538,50.7482275 1160.61538,49 C1160.61538,44.7941392 1157.20586,41.3846154 1153,41.3846154 Z" id="Shape"></path>
            </g>
        </g>
    </g>
</svg>